AB08_12Mar_ss_12ms_01
version=1
nRows=63
nColumns=19
inDegrees=yes
endheader
time	ground_force1_vx	ground_force1_vy	ground_force1_vz	ground_force1_px	ground_force1_py	ground_force1_pz	ground_torque1_x	ground_torque1_y	ground_torque1_z	ground_force2_vx	ground_force2_vy	ground_force2_vz	ground_force2_px	ground_force2_py	ground_force2_pz	ground_torque2_x	ground_torque2_y	ground_torque2_z
19.080000	-57.249756	362.096344	59.891666	0.361451	0.000000	-1.150471	0.000024	-4.682884	0.000008	-42.302551	788.663147	-167.839050	0.550994	0.000000	-0.673880	0.000034	-17.431546	0.000019	
19.081000	-50.993652	374.811188	64.164124	0.368893	0.000000	-1.140608	-0.000011	-10.742998	-0.000003	-42.607727	780.760315	-164.176941	0.548650	0.000000	-0.670109	0.000036	-19.913716	-0.000000	
19.082000	-45.500488	377.233063	65.842590	0.378859	0.000000	-1.142945	0.000044	-12.562322	0.000002	-41.997375	773.465393	-163.261414	0.548659	0.000000	-0.671398	0.000009	-20.861536	0.000015	
19.083000	-39.702148	380.563141	63.858952	0.382336	0.000000	-1.148263	0.000035	-11.735005	0.000014	-40.929260	766.474426	-163.871765	0.547839	0.000000	-0.673079	0.000035	-21.776951	-0.000005	
19.084000	-36.955566	386.617828	60.196842	0.377494	0.000000	-1.147245	0.000009	-11.037560	-0.000002	-41.539612	759.787415	-158.988953	0.545665	0.000000	-0.668119	0.000042	-20.852585	0.000053	
19.085000	-36.040039	395.397125	55.314030	0.368739	0.000000	-1.151262	0.000044	-13.888070	0.000014	-39.555969	756.139954	-152.732849	0.547270	0.000000	-0.666517	0.000059	-19.000303	0.000031	
19.086000	-37.260742	405.690094	49.973454	0.361568	0.000000	-1.156782	0.000013	-9.583191	0.000000	-35.588684	755.532043	-149.986267	0.552285	0.000000	-0.664478	0.000017	-16.763112	0.000055	
19.087000	-32.225342	415.377594	48.600163	0.364692	0.000000	-1.150272	-0.000003	-12.465521	0.000008	-35.741272	748.237122	-149.986267	0.551106	0.000000	-0.666405	0.000049	-17.013731	0.000045	
19.088000	-23.985596	423.854156	51.499332	0.370118	0.000000	-1.140450	0.000057	-17.168152	0.000005	-37.419739	740.030334	-152.122498	0.549392	0.000000	-0.665579	0.000042	-18.171865	0.000004	
19.089000	-18.339844	430.817047	56.382145	0.375108	0.000000	-1.144572	-0.000009	-15.243799	0.000009	-42.149963	729.391907	-155.784607	0.546244	0.000000	-0.662281	0.000029	-20.108206	0.000020	
19.090000	-14.067383	437.779938	57.755436	0.375383	0.000000	-1.144679	0.000050	-13.461340	0.000004	-45.659485	720.273254	-159.446716	0.542731	0.000000	-0.661211	0.000016	-22.981960	0.000004	
19.091000	-15.593262	445.045563	61.112370	0.369919	0.000000	-1.141821	0.000057	-13.906159	0.000019	-46.117249	716.017883	-162.498474	0.543625	0.000000	-0.663102	0.000033	-19.832208	-0.000007	
19.092000	-20.018311	451.705719	67.368469	0.362993	0.000000	-1.142194	0.000029	-12.646870	0.000014	-41.387024	712.674377	-170.127869	0.546996	0.000000	-0.668261	0.000004	-17.957989	0.000018	
19.093000	-21.086426	456.549469	71.335754	0.362215	0.000000	-1.148167	-0.000016	-9.023448	0.000002	-38.487854	710.242737	-176.383972	0.550180	0.000000	-0.668151	0.000008	-20.494394	0.000036	
19.094000	-18.034668	459.274078	75.455627	0.366499	0.000000	-1.146116	0.000010	-11.572225	0.000006	-41.234436	704.771545	-175.926208	0.549550	0.000000	-0.660224	0.000032	-21.103892	-0.000020	
19.095000	-16.203613	462.604156	80.033264	0.368810	0.000000	-1.147317	-0.000014	-12.096021	0.000003	-42.302551	698.084534	-175.315857	0.549059	0.000000	-0.652612	0.000013	-19.942418	0.000023	
19.096000	-16.203613	472.594391	84.610901	0.367733	0.000000	-1.146195	0.000043	-8.584433	0.000000	-42.302551	693.221252	-176.383972	0.547454	0.000000	-0.651927	0.000022	-22.286616	0.000006	
19.097000	-15.898438	480.162750	89.188538	0.367166	0.000000	-1.141788	0.000022	-8.439822	0.000012	-38.945618	685.318420	-175.163269	0.545300	0.000000	-0.654476	0.000007	-22.167120	0.000022	
19.098000	-17.424316	490.758453	89.493713	0.361797	0.000000	-1.135946	-0.000006	-7.285430	-0.000001	-33.452454	677.111633	-174.247742	0.544708	0.000000	-0.656302	0.000034	-17.606674	0.000020	
19.099000	-16.356201	498.326813	88.425598	0.360155	0.000000	-1.141117	-0.000020	-5.441166	0.000011	-30.400696	673.160217	-170.738220	0.546881	0.000000	-0.661239	0.000037	-16.999437	-0.000002	
19.100000	-12.694092	500.748688	87.815247	0.362543	0.000000	-1.141420	0.000014	-7.652951	0.000012	-29.027405	667.385071	-165.550232	0.548628	0.000000	-0.660401	0.000043	-19.374624	0.000027	
19.101000	-10.405273	505.895172	84.916077	0.362651	0.000000	-1.141332	0.000088	-9.468547	0.000016	-23.686829	656.746643	-160.209656	0.549069	0.000000	-0.655173	0.000015	-15.232440	0.000019	
19.102000	-10.405273	511.949860	81.559143	0.360237	0.000000	-1.148712	0.000018	-7.367162	-0.000001	-17.583313	649.451721	-159.141541	0.550612	0.000000	-0.653170	-0.000011	-12.594200	0.000034	
19.103000	-4.759521	523.453796	81.559143	0.359092	0.000000	-1.148063	0.000036	-6.926293	0.000001	-20.482483	643.372620	-157.005310	0.547517	0.000000	-0.654049	0.000005	-17.117025	0.000012	
19.104000	3.175049	534.049500	84.916077	0.358744	0.000000	-1.143024	-0.000007	-9.383044	0.000001	-23.839417	634.557922	-155.937195	0.543147	0.000000	-0.652402	0.000006	-17.636624	-0.000017	
19.105000	7.447510	542.828796	89.188538	0.357840	0.000000	-1.143333	0.000066	-8.518803	0.000011	-22.771301	627.263000	-157.463074	0.543338	0.000000	-0.650295	0.000017	-13.503450	0.000002	
19.106000	14.161377	546.461609	91.782532	0.360461	0.000000	-1.143734	0.000084	-9.434944	0.000004	-22.008362	620.272034	-161.582947	0.544601	0.000000	-0.652527	0.000002	-16.830426	-0.000006	
19.107000	19.959717	550.699890	94.986877	0.360906	0.000000	-1.135814	0.000104	-11.978918	0.000004	-20.787659	615.712708	-164.634705	0.549039	0.000000	-0.649853	-0.000004	-17.627531	-0.000006	
19.108000	22.553711	554.938171	98.038635	0.358948	0.000000	-1.135894	0.000014	-10.465373	0.000002	-18.804016	613.585022	-166.770935	0.553935	0.000000	-0.643782	0.000006	-14.588449	0.000020	
19.109000	25.605469	558.873718	102.921448	0.358006	0.000000	-1.143108	0.000033	-9.424650	0.000017	-22.313538	604.466370	-171.195984	0.550748	0.000000	-0.643032	0.000029	-16.912093	0.000001	
19.110000	30.793457	568.561218	108.262024	0.356972	0.000000	-1.138585	0.000021	-8.959155	-0.000006	-27.959290	596.259583	-174.705505	0.545928	0.000000	-0.641277	0.000049	-24.175067	0.000025	
19.111000	34.302979	577.945984	113.297424	0.356286	0.000000	-1.142794	0.000008	-7.006783	0.000014	-31.163635	584.405334	-175.926208	0.539496	0.000000	-0.641799	0.000025	-23.748280	0.000011	
19.112000	38.117676	584.000671	117.569885	0.357651	0.000000	-1.151328	0.000011	-4.096795	0.000012	-28.874817	577.110413	-175.163269	0.539789	0.000000	-0.647383	0.000047	-18.087421	0.000016	
19.113000	43.458252	592.174500	119.400940	0.359948	0.000000	-1.147743	0.000093	-6.380176	0.000004	-26.128235	577.110413	-172.721863	0.545870	0.000000	-0.654969	0.000017	-19.163308	-0.000010	
19.114000	42.390137	596.715515	118.943176	0.359684	0.000000	-1.143486	0.000024	-7.951486	0.000007	-24.297180	568.903625	-171.958923	0.550538	0.000000	-0.649026	0.000008	-22.801718	0.000015	
19.115000	36.439209	601.256531	117.722473	0.356599	0.000000	-1.149799	0.000057	-6.677986	0.000014	-20.177307	554.617737	-168.907166	0.552630	0.000000	-0.638115	0.000028	-18.215214	-0.000009	
19.116000	35.523682	609.733093	120.926819	0.354064	0.000000	-1.148555	0.000055	-9.591085	0.000015	-21.092834	547.930725	-160.667419	0.552459	0.000000	-0.634806	0.000012	-19.937521	0.000013	
19.117000	33.845215	625.475281	125.351868	0.349167	0.000000	-1.140232	0.000058	-8.212435	0.000008	-24.297180	540.939758	-153.190613	0.544858	0.000000	-0.639862	0.000033	-23.299267	0.000007	
19.118000	34.608154	638.190125	126.267395	0.346608	0.000000	-1.147585	0.000044	-6.403699	0.000012	-21.092834	530.605286	-153.953552	0.539243	0.000000	-0.647282	-0.000002	-18.077977	-0.000019	
19.119000	37.965088	645.153015	129.624329	0.349736	0.000000	-1.150261	0.000084	-5.212736	0.000021	-18.651428	521.486633	-155.021667	0.536024	0.000000	-0.653470	0.000009	-16.713562	0.000038	
19.120000	47.120361	649.694031	133.744202	0.355248	0.000000	-1.141473	0.000036	-8.474561	0.000020	-17.888489	516.927307	-150.596619	0.541530	0.000000	-0.651235	-0.000002	-19.403095	0.000022	
19.121000	51.392822	655.748718	136.185608	0.355009	0.000000	-1.141677	0.000061	-9.191764	0.000024	-9.190979	509.024445	-147.239685	0.553075	0.000000	-0.640799	0.000019	-15.202298	-0.000006	
19.122000	49.866943	661.803406	140.152893	0.351426	0.000000	-1.146281	-0.000040	-6.144190	0.000007	-0.493469	498.386017	-148.307800	0.558651	0.000000	-0.627636	0.000004	-8.799624	0.000015	
19.123000	52.766113	670.885437	145.646057	0.349531	0.000000	-1.149230	0.000059	-6.882940	0.000020	-0.035706	488.659454	-151.512146	0.551948	0.000000	-0.623206	0.000005	-10.309319	0.000027	
19.124000	54.139404	683.297546	150.986633	0.345992	0.000000	-1.146841	0.000063	-3.926849	0.000019	-5.223694	484.708038	-156.394958	0.543536	0.000000	-0.634308	0.000005	-14.994205	-0.000014	
19.125000	58.717041	692.076843	156.937561	0.344804	0.000000	-1.149492	0.000054	-3.392395	0.000015	-11.937561	476.805206	-159.904480	0.538454	0.000000	-0.642781	0.000032	-17.690423	0.000004	
19.126000	67.261963	699.039734	164.566956	0.348237	0.000000	-1.146035	0.000052	-5.679690	0.000009	-12.853088	464.647003	-161.125183	0.538267	0.000000	-0.635521	0.000007	-19.944418	0.000002	
19.127000	73.518066	702.067078	168.992004	0.351153	0.000000	-1.143861	0.000031	-4.957797	0.000021	-5.376282	457.048126	-161.582947	0.547682	0.000000	-0.629590	-0.000008	-17.543191	0.000026	
19.128000	78.706055	704.488953	171.585999	0.352043	0.000000	-1.145101	0.000044	-6.071787	0.000009	3.321228	449.753204	-162.345886	0.554467	0.000000	-0.628986	0.000020	-14.910342	0.000013	
19.129000	79.621582	708.121765	171.585999	0.350863	0.000000	-1.144372	0.000001	-4.906466	0.000010	2.863464	441.850372	-162.193298	0.550733	0.000000	-0.632529	0.000016	-16.152049	0.000002	
19.130000	82.978516	709.635437	168.229065	0.350843	0.000000	-1.143985	0.000059	-6.924415	0.000016	-1.866760	435.771271	-159.751892	0.552468	0.000000	-0.641353	0.000034	-15.026354	0.000010	
19.131000	80.079346	715.084656	166.092834	0.348066	0.000000	-1.145798	0.000053	-6.204429	0.000023	-4.765930	428.172394	-151.359558	0.552078	0.000000	-0.637966	0.000029	-18.560662	0.000025	
19.132000	77.180176	721.139343	167.618713	0.345041	0.000000	-1.144263	0.000045	-4.863351	0.000008	-7.359924	413.278595	-144.035339	0.543069	0.000000	-0.627999	0.000007	-21.714913	0.000014	
19.133000	82.673340	732.643250	168.229065	0.346175	0.000000	-1.141879	0.000065	-8.667807	0.000015	-7.207336	402.032257	-141.288757	0.541486	0.000000	-0.629232	0.000007	-22.450857	0.000005	
19.134000	82.062988	742.633484	168.381653	0.346988	0.000000	-1.140257	0.000015	-7.783228	0.000010	-6.902161	391.089874	-136.100769	0.541118	0.000000	-0.626314	0.000020	-21.609341	0.000009	
19.135000	85.267334	746.871765	168.229065	0.350062	0.000000	-1.143869	0.000003	-11.110536	0.000029	-2.782288	385.314728	-128.166199	0.546828	0.000000	-0.626864	0.000027	-13.371184	0.000023	
19.136000	84.351807	750.807312	169.754944	0.349604	0.000000	-1.141432	-0.000008	-10.558303	0.000006	3.473816	381.667267	-121.604919	0.553216	0.000000	-0.632855	0.000012	-9.758204	0.000003	
19.137000	79.774170	748.688171	172.043762	0.347634	0.000000	-1.139796	-0.000027	-8.959934	0.000010	-0.035706	372.548615	-125.724792	0.553762	0.000000	-0.653568	0.000015	-14.173339	0.000022	
19.138000	77.943115	748.688171	172.806702	0.346549	0.000000	-1.144014	0.000115	-10.453223	-0.000000	-3.392639	359.782501	-128.318787	0.551434	0.000000	-0.652421	0.000010	-18.600358	0.000019	
19.139000	72.144775	753.834656	174.942932	0.343890	0.000000	-1.145226	0.000060	-5.158871	0.000009	-2.171936	343.064972	-122.978210	0.545687	0.000000	-0.624660	0.000018	-16.973183	-0.000004	
19.140000	78.400879	763.219421	179.673157	0.346725	0.000000	-1.141648	0.000092	-9.418309	0.000009	4.389343	327.867218	-116.874695	0.541795	0.000000	-0.589075	0.000011	-14.776742	0.000012	
19.141000	80.689697	774.117859	184.861145	0.348140	0.000000	-1.137499	0.000019	-8.263865	0.000015	6.220398	322.699982	-120.841980	0.540677	0.000000	-0.589462	0.000010	-17.187595	-0.000002	
19.142000	80.689697	777.145203	188.523254	0.348875	0.000000	-1.139632	0.000008	-6.553470	0.000020	1.184998	325.131622	-128.013611	0.540103	0.000000	-0.632183	0.000005	-20.079255	0.000022	
